<svg width="365" height="95" viewBox="0 0 365 95" fill="none" xmlns="http://www.w3.org/2000/svg">
<path d="M0.0681818 93V23.1818H46.2955V35.3523H14.8295V51.9886H43.2273V64.1591H14.8295V93H0.0681818ZM75.767 94.0227C70.4716 94.0227 65.892 92.8977 62.0284 90.6477C58.1875 88.375 55.2216 85.2159 53.1307 81.1705C51.0398 77.1023 49.9943 72.3864 49.9943 67.0227C49.9943 61.6136 51.0398 56.8864 53.1307 52.8409C55.2216 48.7727 58.1875 45.6136 62.0284 43.3636C65.892 41.0909 70.4716 39.9545 75.767 39.9545C81.0625 39.9545 85.6307 41.0909 89.4716 43.3636C93.3352 45.6136 96.3125 48.7727 98.4034 52.8409C100.494 56.8864 101.54 61.6136 101.54 67.0227C101.54 72.3864 100.494 77.1023 98.4034 81.1705C96.3125 85.2159 93.3352 88.375 89.4716 90.6477C85.6307 92.8977 81.0625 94.0227 75.767 94.0227ZM75.8352 82.7727C78.2443 82.7727 80.2557 82.0909 81.8693 80.7273C83.483 79.3409 84.6989 77.4545 85.517 75.0682C86.358 72.6818 86.7784 69.9659 86.7784 66.9205C86.7784 63.875 86.358 61.1591 85.517 58.7727C84.6989 56.3864 83.483 54.5 81.8693 53.1136C80.2557 51.7273 78.2443 51.0341 75.8352 51.0341C73.4034 51.0341 71.358 51.7273 69.6989 53.1136C68.0625 54.5 66.8239 56.3864 65.983 58.7727C65.1648 61.1591 64.7557 63.875 64.7557 66.9205C64.7557 69.9659 65.1648 72.6818 65.983 75.0682C66.8239 77.4545 68.0625 79.3409 69.6989 80.7273C71.358 82.0909 73.4034 82.7727 75.8352 82.7727ZM110.983 93V40.6364H125.062V49.7727H125.608C126.563 46.5227 128.165 44.0682 130.415 42.4091C132.665 40.7273 135.256 39.8864 138.188 39.8864C138.915 39.8864 139.699 39.9318 140.54 40.0227C141.381 40.1136 142.119 40.2386 142.756 40.3977V53.2841C142.074 53.0795 141.131 52.8977 139.926 52.7386C138.722 52.5795 137.619 52.5 136.619 52.5C134.483 52.5 132.574 52.9659 130.892 53.8977C129.233 54.8068 127.915 56.0795 126.938 57.7159C125.983 59.3523 125.506 61.2386 125.506 63.375V93H110.983ZM180.741 40.6364V51.5455H149.207V40.6364H180.741ZM156.366 28.0909H170.889V76.9091C170.889 78.25 171.094 79.2955 171.503 80.0455C171.912 80.7727 172.48 81.2841 173.207 81.5795C173.957 81.875 174.821 82.0227 175.798 82.0227C176.48 82.0227 177.162 81.9659 177.844 81.8523C178.526 81.7159 179.048 81.6136 179.412 81.5455L181.696 92.3523C180.969 92.5795 179.946 92.8409 178.628 93.1364C177.31 93.4545 175.707 93.6477 173.821 93.7159C170.321 93.8523 167.253 93.3864 164.616 92.3182C162.003 91.25 159.969 89.5909 158.514 87.3409C157.06 85.0909 156.344 82.25 156.366 78.8182V28.0909ZM205.134 93.9886C201.793 93.9886 198.815 93.4091 196.202 92.25C193.588 91.0682 191.52 89.3295 189.997 87.0341C188.497 84.7159 187.747 81.8295 187.747 78.375C187.747 75.4659 188.281 73.0227 189.349 71.0455C190.418 69.0682 191.872 67.4773 193.713 66.2727C195.554 65.0682 197.645 64.1591 199.986 63.5455C202.349 62.9318 204.827 62.5 207.418 62.25C210.463 61.9318 212.918 61.6364 214.781 61.3636C216.645 61.0682 217.997 60.6364 218.838 60.0682C219.679 59.5 220.099 58.6591 220.099 57.5455V57.3409C220.099 55.1818 219.418 53.5114 218.054 52.3295C216.713 51.1477 214.804 50.5568 212.327 50.5568C209.713 50.5568 207.634 51.1364 206.088 52.2955C204.543 53.4318 203.52 54.8636 203.02 56.5909L189.588 55.5C190.27 52.3182 191.611 49.5682 193.611 47.25C195.611 44.9091 198.19 43.1136 201.349 41.8636C204.531 40.5909 208.213 39.9545 212.395 39.9545C215.304 39.9545 218.088 40.2955 220.747 40.9773C223.429 41.6591 225.804 42.7159 227.872 44.1477C229.963 45.5795 231.611 47.4205 232.815 49.6705C234.02 51.8977 234.622 54.5682 234.622 57.6818V93H220.849V85.7386H220.44C219.599 87.375 218.474 88.8182 217.065 90.0682C215.656 91.2955 213.963 92.2614 211.986 92.9659C210.009 93.6477 207.724 93.9886 205.134 93.9886ZM209.293 83.9659C211.429 83.9659 213.315 83.5455 214.952 82.7045C216.588 81.8409 217.872 80.6818 218.804 79.2273C219.736 77.7727 220.202 76.125 220.202 74.2841V68.7273C219.747 69.0227 219.122 69.2955 218.327 69.5455C217.554 69.7727 216.679 69.9886 215.702 70.1932C214.724 70.375 213.747 70.5455 212.77 70.7045C211.793 70.8409 210.906 70.9659 210.111 71.0795C208.406 71.3295 206.918 71.7273 205.645 72.2727C204.372 72.8182 203.384 73.5568 202.679 74.4886C201.974 75.3977 201.622 76.5341 201.622 77.8977C201.622 79.875 202.338 81.3864 203.77 82.4318C205.224 83.4545 207.065 83.9659 209.293 83.9659ZM269.753 94.0227C264.366 94.0227 259.73 92.9318 255.844 90.75C251.98 88.5455 249.003 85.4318 246.912 81.4091C244.821 77.3636 243.776 72.5795 243.776 67.0568C243.776 61.6705 244.821 56.9432 246.912 52.875C249.003 48.8068 251.946 45.6364 255.741 43.3636C259.56 41.0909 264.037 39.9545 269.173 39.9545C272.628 39.9545 275.844 40.5114 278.821 41.625C281.821 42.7159 284.435 44.3636 286.662 46.5682C288.912 48.7727 290.662 51.5455 291.912 54.8864C293.162 58.2045 293.787 62.0909 293.787 66.5455V70.5341H249.571V61.5341H280.116C280.116 59.4432 279.662 57.5909 278.753 55.9773C277.844 54.3636 276.582 53.1023 274.969 52.1932C273.378 51.2614 271.526 50.7955 269.412 50.7955C267.207 50.7955 265.253 51.3068 263.548 52.3295C261.866 53.3295 260.548 54.6818 259.594 56.3864C258.639 58.0682 258.151 59.9432 258.128 62.0114V70.5682C258.128 73.1591 258.605 75.3977 259.56 77.2841C260.537 79.1705 261.912 80.625 263.685 81.6477C265.457 82.6705 267.56 83.1818 269.991 83.1818C271.605 83.1818 273.082 82.9545 274.423 82.5C275.764 82.0455 276.912 81.3636 277.866 80.4545C278.821 79.5455 279.548 78.4318 280.048 77.1136L293.48 78C292.798 81.2273 291.401 84.0455 289.287 86.4545C287.196 88.8409 284.491 90.7045 281.173 92.0455C277.878 93.3636 274.071 94.0227 269.753 94.0227Z" fill="#E6E6E6"/>
<path d="M322.5 19.9432V13.0909H352.006V19.9432H341.42V48H333.102V19.9432H322.5Z" fill="#E6E6E6"/>
<circle cx="337" cy="28" r="26" stroke="#E6E6E6" stroke-width="4"/>
</svg>
